<svg id="Layer_1" data-name="Layer 1" xmlns="http://www.w3.org/2000/svg" viewBox="0 0 630.78 626.14"><polygon points="55.73 125.03 387.41 125.03 333 219.24 313.29 187.41 273.23 187.41 312 255.17 276.81 318.51 199.92 186.31 162.5 186.31 315.23 453.13 279.17 515.42 55.73 125.03"/><path d="M413.76,344l43.86-1.84L583.34,125H400L269,351.08l37.32,66,49.85-84.73,18.58,31.89L284,524l35.71,61.95L435.25,381.6Zm26.55-157.77,18.59,32L418,289.73l-36.28-.8Z"/><path d="M312,91a197.36,197.36,0,0,1,85.45,19.26h62.37a232.13,232.13,0,0,0-295.64,0h62.37A197.36,197.36,0,0,1,312,91Z"/><path d="M510.06,281.94c.09,2.44.15,4.89.15,7.34a197,197,0,0,1-58.06,140.18A199.21,199.21,0,0,1,406,463.93l-27.32,47.75C474.34,483,544.1,394.31,544.1,289.28A232.79,232.79,0,0,0,537.47,234Z"/><path d="M171.79,429.46a197,197,0,0,1-58.06-140.18,201,201,0,0,1,1.68-25.94l-25-43.6a232.15,232.15,0,0,0-10.6,69.54c0,110.28,76.9,202.6,180,226.25l-24.9-43.48A197.84,197.84,0,0,1,171.79,429.46Z"/></svg>